<svg width="2147" height="884" xmlns="http://www.w3.org/2000/svg" t="1710124610491" class="icon" version="1.1" p-id="2781">
 <g>
  <title>Layer 1</title>
  <path stroke="null" d="m372.5784,49.47971a27.14005,25.97295 0 0 1 27.14005,0l332.91791,183.97505a27.14005,25.97295 0 0 1 13.57002,22.50989l0,367.95009a27.14005,25.97295 0 0 1 -13.57002,22.50989l-332.91791,183.97505a27.14005,25.97295 0 0 1 -27.14005,0l-333.00837,-183.97505a27.14005,25.97295 0 0 1 -13.57002,-22.50989l0,-367.95009a27.14005,25.97295 0 0 1 13.57002,-22.50989l332.96314,-183.97505l0.04523,0zm-292.34354,221.46267l0,337.95134l305.82309,168.99731l305.86833,-168.99731l0,-337.95134l-305.82309,-169.0406l-305.73263,169.0406l-0.1357,0z" fill="#1296db" p-id="2782" id="svg_1"/>
  <path stroke="null" d="m517.77029,208.03887a27.08042,25.23318 0 0 1 23.4697,12.61659l129.67008,209.30923a27.08042,25.23318 0 0 1 0,25.23318l-129.67008,209.30923a27.08042,25.23318 0 0 1 -23.4697,12.61659l-259.3853,0a27.08042,25.23318 0 0 1 -23.4697,-12.61659l-129.67008,-209.30923a27.08042,25.23318 0 0 1 0,-25.23318l129.71522,-209.30923a27.08042,25.23318 0 0 1 23.4697,-12.61659l259.34017,0zm-15.61638,50.46636l-228.10741,0l-114.05371,184.07605l114.05371,184.07605l228.10741,0l114.05371,-184.07605l-114.05371,-184.07605z" fill="#1296db" p-id="2783" id="svg_2"/>
  <path stroke="null" d="m537.45121,518.88527c0,4.59846 -2.6327,8.86845 -6.93277,11.20874l-136.02269,73.49318a13.82166,12.93316 0 0 1 -13.77778,0l-136.02269,-73.49318a13.82166,12.93316 0 0 1 -6.88889,-11.20874l0,-146.98636c0,-4.59846 2.6327,-8.86845 6.88889,-11.16768l136.02269,-73.49318a13.82166,12.93316 0 0 1 13.82166,0l136.02269,73.49318c4.25619,2.29923 6.88889,6.56922 6.88889,11.20874l0,146.94531zm-27.64332,-139.47281l-122.20103,-66.02069l-122.15715,66.02069l0,132.00032l122.15715,65.97963l122.20103,-65.97963l0,-132.04138l0,0.04106z" fill="#1296db" p-id="2784" id="svg_3"/>
  <path d="m385.6848,545.97808a16.128,16.128 0 0 1 -16.128,-16.128l0,-76.288l-66.1504,-40.1408a16.128,16.128 0 0 1 16.7424,-27.5968l73.8816,44.8512c4.864,2.9184 7.7824,8.192 7.7824,13.824l0,85.3504a16.128,16.128 0 0 1 -16.128,16.128z" fill="#1296db" p-id="2785" id="svg_4"/>
  <path d="m374.8304,455.86608a16.128,16.128 0 0 1 5.3248,-22.1696l73.216,-44.8512a16.128,16.128 0 1 1 16.896,27.5456l-73.216,44.8512a16.128,16.128 0 0 1 -22.2208,-5.376z" fill="#1296db" p-id="2786" id="svg_5"/>
  <path fill="none" stroke="null" id="svg_11" d="m892.6662,213.99998c0,1 2.25055,3.89163 9,6c10.67181,3.33362 23.67072,9.72147 34,14c11.68628,4.84061 20.63037,10.56287 28,15c11.4939,6.92026 23.39221,8.94922 38,15c14.461,5.98993 30.05511,12.83826 41.99994,17c11.05298,3.85101 15.05273,7.92303 18,10c3.37024,2.37512 10.31372,3.15939 22,8c8.26343,3.42282 16,7 21,9l1,1l2,1"/>
  <path fill="none" stroke="null" id="svg_12" d="m875.6662,230.99998c2,0 8.72095,-3.72606 49,6c45.18787,10.91138 85.17535,19.98395 116.99994,26c36.23645,6.85004 62.74841,10.38809 78,20c7.17859,4.52411 17.97632,12.03339 25,17c9.96655,7.04755 19.91602,15.09552 29,23c16.31982,14.20078 27.36487,22.71127 36,34c5.22644,6.83258 10,12 12,14l0,1l1,1"/>
  <path fill="none" stroke="null" id="svg_13" d="m1168.66613,344.99998c3,2 14.6936,5.73038 21,10c4.6842,3.17139 8,7 10,8l4,2l4,4l1,0"/>
  <path fill="#1296db" stroke="null" d="m1000.5478,381.5479l0.56913,0l0.17587,-0.54067l0.17587,0.54067l0.56913,0l-0.46044,0.33415l0.17588,0.54067l-0.46044,-0.33416l-0.46044,0.33416l0.17588,-0.54067l-0.46044,-0.33415z" id="svg_16"/>
  <text transform="matrix(0.982926 0 0 1.37385 -7.98703 -140.374)" stroke="null" fill="#000000" x="832.17903" y="518.80967" id="svg_24" stroke-width="0" font-size="200" font-family="'Cabin'" text-anchor="start" xml:space="preserve" font-style="normal" font-weight="bold">AIMT-studio</text>
 </g>

</svg>