<?xml version="1.0" standalone="no"?><!DOCTYPE svg PUBLIC "-//W3C//DTD SVG 1.1//EN" "http://www.w3.org/Graphics/SVG/1.1/DTD/svg11.dtd"><svg t="1710124610491" class="icon" viewBox="0 0 1024 1024" version="1.1" xmlns="http://www.w3.org/2000/svg" p-id="2781" xmlns:xlink="http://www.w3.org/1999/xlink" width="200" height="200"><path d="M487.936 75.7248a30.72 30.72 0 0 1 30.72 0l376.832 217.6a30.72 30.72 0 0 1 15.36 26.624v435.2a30.72 30.72 0 0 1-15.36 26.624l-376.832 217.6a30.72 30.72 0 0 1-30.72 0l-376.9344-217.6a30.72 30.72 0 0 1-15.36-26.624v-435.2a30.72 30.72 0 0 1 15.36-26.624l376.8832-217.6zM157.0304 337.664v399.7184l346.1632 199.8848 346.2144-199.8848V337.664L503.2448 137.728 157.184 337.664z" fill="#1296db" p-id="2782"></path><path d="M650.3424 251.648a30.72 30.72 0 0 1 26.624 15.36l147.0976 254.8224a30.72 30.72 0 0 1 0 30.72l-147.0976 254.8224a30.72 30.72 0 0 1-26.624 15.36H356.096a30.72 30.72 0 0 1-26.624-15.36l-147.0976-254.8224a30.72 30.72 0 0 1 0-30.72l147.1488-254.8224a30.72 30.72 0 0 1 26.624-15.36h294.1952z m-17.7152 61.44H373.8624l-129.3824 224.1024 129.3824 224.1024h258.7648l129.3824-224.1024-129.3824-224.1024z" fill="#1296db" p-id="2783"></path><path d="M678.0928 629.1456c0 5.7344-3.072 11.0592-8.0896 13.9776l-158.72 91.648a16.128 16.128 0 0 1-16.0768 0l-158.72-91.648a16.128 16.128 0 0 1-8.0384-13.9776v-183.296c0-5.7344 3.072-11.0592 8.0384-13.9264l158.72-91.648a16.128 16.128 0 0 1 16.128 0l158.72 91.648c4.9664 2.8672 8.0384 8.192 8.0384 13.9776v183.2448z m-32.256-173.9264L503.2448 372.8896 360.704 455.2192v164.608l142.5408 82.2784 142.592-82.2784V455.168z" fill="#1296db" p-id="2784"></path><path d="M500.3264 641.5872a16.128 16.128 0 0 1-16.128-16.128v-76.288l-66.1504-40.1408a16.128 16.128 0 0 1 16.7424-27.5968l73.8816 44.8512c4.864 2.9184 7.7824 8.192 7.7824 13.824v85.3504a16.128 16.128 0 0 1-16.128 16.128z" fill="#1296db" p-id="2785"></path><path d="M489.472 551.4752a16.128 16.128 0 0 1 5.3248-22.1696l73.216-44.8512a16.128 16.128 0 1 1 16.896 27.5456l-73.216 44.8512a16.128 16.128 0 0 1-22.2208-5.376z" fill="#1296db" p-id="2786"></path></svg>